<svg width="336" height="336" viewBox="0 0 336 336" fill="none" xmlns="http://www.w3.org/2000/svg">
<path d="M336 256.973H0V257.141H336V256.973Z" fill="#EBEBEB"/>
<path d="M159.264 227.002H29.5075C28.491 227 27.5168 226.595 26.7986 225.875C26.0805 225.156 25.6771 224.181 25.6771 223.164V40.7635C25.686 39.7528 26.0932 38.7865 26.8104 38.0743C27.5276 37.3622 28.4968 36.9617 29.5075 36.96H159.264C160.282 36.96 161.258 37.3643 161.977 38.0839C162.697 38.8035 163.101 39.7794 163.101 40.7971V223.164C163.101 224.182 162.697 225.158 161.977 225.878C161.258 226.597 160.282 227.002 159.264 227.002ZM29.5075 37.0944C28.5356 37.0962 27.604 37.4835 26.9174 38.1714C26.2308 38.8593 25.8451 39.7916 25.8451 40.7635V223.164C25.8451 224.136 26.2308 225.069 26.9174 225.757C27.604 226.444 28.5356 226.832 29.5075 226.834H159.264C160.237 226.832 161.169 226.445 161.857 225.757C162.544 225.069 162.931 224.137 162.933 223.164V40.7635C162.931 39.7909 162.544 38.8587 161.857 38.171C161.169 37.4833 160.237 37.0962 159.264 37.0944H29.5075Z" fill="#EBEBEB"/>
<path d="M304.624 227.002H174.861C173.844 227 172.869 226.595 172.15 225.876C171.431 225.157 171.026 224.182 171.024 223.164V40.7635C171.035 39.7522 171.443 38.7859 172.162 38.0739C172.88 37.3619 173.85 36.9617 174.861 36.96H304.624C305.634 36.9635 306.601 37.3647 307.317 38.0767C308.033 38.7886 308.439 39.754 308.448 40.7635V223.164C308.448 224.18 308.046 225.154 307.329 225.873C306.612 226.592 305.64 226.998 304.624 227.002ZM174.861 37.0944C173.889 37.0962 172.956 37.4833 172.269 38.171C171.581 38.8587 171.194 39.7909 171.192 40.7635V223.164C171.194 224.137 171.581 225.069 172.269 225.757C172.956 226.445 173.889 226.832 174.861 226.834H304.624C305.597 226.832 306.529 226.445 307.217 225.757C307.905 225.069 308.292 224.137 308.293 223.164V40.7635C308.292 39.7909 307.905 38.8587 307.217 38.171C306.529 37.4833 305.597 37.0962 304.624 37.0944H174.861Z" fill="#EBEBEB"/>
<path d="M134.696 263.37H117.224V263.538H134.696V263.37Z" fill="#EBEBEB"/>
<path d="M71.6084 261.549H35.2532V261.717H71.6084V261.549Z" fill="#EBEBEB"/>
<path d="M116.552 269.613H98.8646V269.781H116.552V269.613Z" fill="#EBEBEB"/>
<path d="M199.624 268.484H173.531V268.652H199.624V268.484Z" fill="#EBEBEB"/>
<path d="M212.789 268.484H205.605V268.652H212.789V268.484Z" fill="#EBEBEB"/>
<path d="M302.339 265.648H265.675V265.816H302.339V265.648Z" fill="#EBEBEB"/>
<path d="M256.072 251.012H286.749V166.696H256.072V251.012Z" fill="#F0F0F0"/>
<path d="M122.123 256.966H280.856V251.005L122.123 251.005V256.966Z" fill="#F0F0F0"/>
<path d="M256.072 166.69H116.236V251.005H256.072V166.69Z" fill="#F5F5F5"/>
<path d="M256.61 172.402H116.236V203.267H256.61V172.402Z" fill="#F0F0F0"/>
<path d="M256.61 208.891H116.236V239.756H256.61V208.891Z" fill="#F0F0F0"/>
<path d="M256.072 203.26H261.381V172.395H256.072V203.26Z" fill="#E6E6E6"/>
<path d="M256.072 239.749H261.381V208.884H256.072V239.749Z" fill="#E6E6E6"/>
<path d="M112.15 166.69L256.072 166.69V161.502L112.15 161.502V166.69Z" fill="#F0F0F0"/>
<path d="M291.036 161.502H256.072V166.69H291.036V161.502Z" fill="#E6E6E6"/>
<path d="M220.517 145.643H292.71V54.8957L220.517 54.8957V145.643Z" fill="#F0F0F0"/>
<path d="M204.577 145.643H289.941V54.8957L204.577 54.8957V145.643Z" fill="#F5F5F5"/>
<path d="M211.727 62.0457V138.492H282.791V62.0457H211.727Z" fill="white"/>
<path d="M255.125 108.541L268.706 102.245V98.2867L255.125 91.9766V96.7209L263.377 100.276L255.125 103.831V108.541Z" fill="#E6E6E6"/>
<path d="M246.268 90.1488H243.788L248.183 110.383H250.656L246.268 90.1488Z" fill="#E6E6E6"/>
<path d="M239.387 103.831L231.168 100.276L239.42 96.7209V91.9766L225.792 98.2867V102.245L239.373 108.541L239.387 103.831Z" fill="#E6E6E6"/>
<path d="M78.7718 256.973H83.5027L83.5027 102.964H78.7718L78.7718 256.973Z" fill="#F0F0F0"/>
<path d="M77.784 255.898L77.6563 255.226C78.1429 255.069 78.5924 254.815 78.9772 254.479C79.362 254.143 79.674 253.731 79.8941 253.27C81.1238 251.093 81.8697 246.449 78.4493 236.719C73.1808 221.72 76.3258 209.624 82.5955 185.512C83.6842 181.312 84.9206 176.555 86.2041 171.4C91.0224 152.134 86.567 140.186 82.9853 130.583C80.2099 123.131 78.0125 117.244 80.8214 110.423L81.4464 110.678C78.7584 117.251 80.8886 123.03 83.6169 130.348C87.2323 140.031 91.728 152.094 86.856 171.555C85.5725 176.702 84.336 181.46 83.2473 185.667C77.0112 209.664 73.8797 221.706 79.0877 236.544C82.6022 246.55 81.7757 251.388 80.4317 253.68C80.1649 254.211 79.7924 254.681 79.3371 255.063C78.8818 255.444 78.3532 255.728 77.784 255.898Z" fill="#F0F0F0"/>
<path d="M72.5693 256.973H89.6986L84.9341 254.164H77.3338L72.5693 256.973Z" fill="#F0F0F0"/>
<path d="M47.2483 122.58H115.019L107.56 65.6342H54.7075L47.2483 122.58Z" fill="#F5F5F5"/>
<path d="M147.759 131.967H183.94L179.175 161.502H152.524L147.759 131.967Z" fill="#F0F0F0"/>
<path d="M162.295 141.577C172.16 138.009 179.713 132.646 171.259 121.793C162.805 110.94 149.708 110.994 140.878 115.799C129.629 121.914 131.887 139.621 131.887 139.621C131.887 139.621 152.43 145.152 162.295 141.577Z" fill="#E0E0E0"/>
<path d="M171.884 131.712C164.338 126.571 158.988 120.624 167.745 114.348C176.501 108.071 187.3 111.29 193.791 117.116C202.064 124.548 197.286 137.592 197.286 137.592C197.286 137.592 179.424 136.826 171.884 131.712Z" fill="#E6E6E6"/>
<path d="M158.592 118.668C167.422 118.138 174.828 115.833 170.648 106.27C166.468 96.7075 155.864 94.0262 147.591 95.6659C137.021 97.7558 134.528 110.981 134.528 110.981C134.528 110.981 149.769 119.206 158.592 118.668Z" fill="#F0F0F0"/>
<path d="M169.68 113.03C162.335 110.665 156.576 107.124 162.174 99.9398C167.771 92.7561 177.294 92.7965 183.947 95.9683C192.427 100 191.675 111.733 191.675 111.733C191.675 111.733 177.025 115.389 169.68 113.03Z" fill="#EBEBEB"/>
<path d="M155.904 100.8C163.235 103.219 169.976 103.743 169.673 94.6445C169.371 85.5456 161.67 79.968 154.426 78.5837C145.186 76.8634 138.896 86.7754 138.896 86.7754C138.896 86.7754 148.586 98.3606 155.904 100.8Z" fill="#F5F5F5"/>
<path d="M174.512 96.8688C169.263 97.2317 164.727 96.4387 166.448 90.4781C168.168 84.5174 174.216 82.1453 179.216 82.4745C185.6 82.8979 188.079 90.5385 188.079 90.5385C188.079 90.5385 179.753 96.5126 174.512 96.8688Z" fill="#FAFAFA"/>
<path d="M168 287.32C239.959 287.32 298.294 283.915 298.294 279.713C298.294 275.512 239.959 272.106 168 272.106C96.0406 272.106 37.7059 275.512 37.7059 279.713C37.7059 283.915 96.0406 287.32 168 287.32Z" fill="#F5F5F5"/>
<path d="M281.743 168.732H53.4307V176.924H281.743V168.732Z" fill="#56065D"/>
<path opacity="0.3" d="M114.536 168.732H53.4307V176.924H114.536V168.732Z" fill="white"/>
<path d="M115.51 176.924H110.194L112.977 279.592H115.51H118.043L120.832 176.924H115.51Z" fill="#56065D"/>
<path opacity="0.3" d="M112.977 279.592H115.51V179.128L110.282 180.083L112.977 279.592Z" fill="white"/>
<path d="M65.1302 176.924H59.8147L62.5968 279.592H65.1302H67.6637L70.4457 176.924H65.1302Z" fill="#56065D"/>
<path opacity="0.3" d="M62.5967 279.592H65.1301V179.128L59.8953 180.083L62.5967 279.592Z" fill="white"/>
<path d="M270.043 176.924H264.728L267.51 279.592H270.043H272.577L275.365 176.924H270.043Z" fill="#56065D"/>
<path opacity="0.3" d="M267.51 279.592H270.043V179.128L264.815 180.083L267.51 279.592Z" fill="white"/>
<path d="M219.663 176.924H214.348L217.13 279.592H219.663H222.197L224.979 176.924H219.663Z" fill="#56065D"/>
<path opacity="0.3" d="M217.13 279.592H219.663V179.128L214.435 180.083L217.13 279.592Z" fill="white"/>
<path d="M161.804 124.878H107.52C107.079 124.86 106.641 124.947 106.241 125.132C105.84 125.316 105.489 125.592 105.216 125.938C104.942 126.284 104.755 126.69 104.668 127.122C104.582 127.555 104.599 128.001 104.718 128.426L111.948 162.933C112.181 163.909 112.726 164.783 113.499 165.422C114.273 166.061 115.233 166.43 116.236 166.475H170.56C171 166.492 171.438 166.405 171.838 166.221C172.237 166.037 172.588 165.761 172.861 165.416C173.134 165.071 173.322 164.666 173.409 164.235C173.496 163.803 173.48 163.357 173.363 162.933L166.125 128.426C165.892 127.443 165.343 126.564 164.563 125.923C163.782 125.282 162.813 124.915 161.804 124.878Z" fill="#263238"/>
<path d="M116.706 164.506C116.029 164.46 115.384 164.201 114.862 163.767C114.341 163.332 113.97 162.744 113.803 162.086L106.572 127.579C106.511 127.351 106.501 127.112 106.544 126.879C106.587 126.646 106.682 126.426 106.821 126.235C106.966 126.072 107.145 125.943 107.347 125.858C107.548 125.773 107.765 125.734 107.984 125.745H162.308C162.985 125.79 163.631 126.049 164.152 126.483C164.673 126.918 165.044 127.506 165.211 128.164L172.442 162.671C172.504 162.899 172.514 163.139 172.47 163.371C172.427 163.604 172.333 163.824 172.193 164.015C172.049 164.18 171.87 164.31 171.669 164.395C171.467 164.48 171.249 164.518 171.031 164.506H116.706Z" fill="white"/>
<path opacity="0.4" d="M157.691 161.744L150.837 129.024C150.799 128.83 150.803 128.63 150.851 128.439C150.898 128.247 150.987 128.068 151.112 127.915C151.236 127.761 151.393 127.637 151.571 127.552C151.749 127.466 151.943 127.42 152.141 127.418H160.957C161.263 127.42 161.559 127.527 161.796 127.72C162.033 127.913 162.197 128.181 162.261 128.48L169.115 161.172C169.154 161.366 169.149 161.566 169.102 161.758C169.054 161.949 168.965 162.128 168.841 162.282C168.716 162.435 168.56 162.559 168.382 162.645C168.204 162.731 168.009 162.776 167.812 162.779H158.995C158.693 162.778 158.4 162.675 158.164 162.487C157.927 162.299 157.761 162.038 157.691 161.744Z" fill="#56065D"/>
<path d="M111.095 130.281L110.799 128.863H121.686L121.981 130.281H111.095Z" fill="#56065D"/>
<path d="M116.121 133.802L115.826 132.384H134.904L135.206 133.802H116.121Z" fill="#EBEBEB"/>
<path d="M117.13 137.316L116.827 135.899H138.217L138.513 137.316H117.13Z" fill="#EBEBEB"/>
<path d="M118.131 140.838L117.835 139.42H135.052L135.354 140.838H118.131Z" fill="#EBEBEB"/>
<path d="M114.408 146.543L114.106 145.125H120.994L121.289 146.543H114.408Z" fill="#56065D"/>
<path d="M119.428 150.058L119.132 148.64H127.519L127.821 150.058H119.428Z" fill="#EBEBEB"/>
<path d="M129.83 150.058L129.528 148.64H137.921L138.217 150.058H129.83Z" fill="#EBEBEB"/>
<path d="M120.436 153.579L120.14 152.161H148.499L148.794 153.579H120.436Z" fill="#EBEBEB"/>
<path d="M121.437 157.093L121.141 155.676H142.766L143.062 157.093H121.437Z" fill="#EBEBEB"/>
<path d="M187.165 166.266H115.691C113.743 166.266 112.479 167.375 112.889 168.732H191.453C191.05 167.375 189.114 166.266 187.165 166.266Z" fill="#263238"/>
<path opacity="0.1" d="M92.2051 116.155L85.344 83.4557C85.3065 83.2625 85.312 83.0634 85.36 82.8725C85.408 82.6816 85.4973 82.5036 85.6217 82.3511C85.7461 82.1985 85.9024 82.0751 86.0797 81.9896C86.2569 81.9042 86.4508 81.8586 86.6476 81.8563H142.155C142.46 81.8583 142.755 81.9639 142.991 82.1556C143.228 82.3473 143.393 82.6138 143.459 82.9114L150.32 115.584C150.358 115.778 150.354 115.978 150.306 116.169C150.259 116.361 150.169 116.54 150.045 116.693C149.92 116.847 149.764 116.971 149.586 117.056C149.408 117.142 149.213 117.188 149.016 117.19H93.5088C93.2068 117.189 92.9139 117.086 92.6774 116.899C92.4409 116.711 92.2745 116.449 92.2051 116.155Z" fill="#56065D"/>
<path d="M111.935 82.9315H100.282L100.02 81.6749H111.673L111.935 82.9315Z" fill="#56065D"/>
<path opacity="0.4" d="M110.04 84.9341H105.363L105.101 83.6774H109.778L110.04 84.9341Z" fill="#56065D"/>
<path opacity="0.4" d="M117.822 84.9341H110.618L110.356 83.6774H117.56L117.822 84.9341Z" fill="#56065D"/>
<path opacity="0.4" d="M120.96 86.9299H105.779L105.517 85.6733H120.705L120.96 86.9299Z" fill="#56065D"/>
<path opacity="0.4" d="M119.031 88.9325H106.196L105.934 87.6758H118.769L119.031 88.9325Z" fill="#56065D"/>
<path opacity="0.4" d="M127.546 110.174H119.374L119.636 111.424H127.808L127.546 110.174Z" fill="#56065D"/>
<path d="M117.358 107.433H105.39L105.128 106.176H117.096L117.358 107.433Z" fill="#56065D"/>
<path opacity="0.4" d="M122.17 112.17H111.041L111.303 113.427H122.432L122.17 112.17Z" fill="#56065D"/>
<path opacity="0.4" d="M118.796 110.174H110.625L110.887 111.424H119.058L118.796 110.174Z" fill="#56065D"/>
<path opacity="0.4" d="M126.551 108.172H110.208L110.47 109.428H126.813L126.551 108.172Z" fill="#56065D"/>
<path d="M111.525 73.6042H98.3404L98.0784 72.3542H111.263L111.525 73.6042Z" fill="#56065D"/>
<path opacity="0.4" d="M118.037 78.3485H103.495L103.757 79.6051H118.292L118.037 78.3485Z" fill="#56065D"/>
<path opacity="0.4" d="M115.127 76.3526H103.078L103.34 77.6026H115.389L115.127 76.3526Z" fill="#56065D"/>
<path opacity="0.4" d="M115.927 74.3501H102.661L102.923 75.6067H116.189L115.927 74.3501Z" fill="#56065D"/>
<path d="M111.377 92.185H102.211L101.949 90.9283H111.115L111.377 92.185Z" fill="#56065D"/>
<path opacity="0.4" d="M125.771 96.9226H107.863L108.125 98.1792H126.027L125.771 96.9226Z" fill="#56065D"/>
<path opacity="0.4" d="M114.865 94.9267H107.446L107.708 96.1834H115.127L114.865 94.9267Z" fill="#56065D"/>
<path opacity="0.4" d="M122.915 94.9267H115.497L115.759 96.1834H123.178L122.915 94.9267Z" fill="#56065D"/>
<path opacity="0.4" d="M123.372 92.9242H107.029L107.291 94.1808H123.628L123.372 92.9242Z" fill="#56065D"/>
<path opacity="0.4" d="M123.339 102.924H109.113L109.375 104.173H123.601L123.339 102.924Z" fill="#56065D"/>
<path opacity="0.4" d="M112.835 100.921H108.696L108.958 102.178H113.091L112.835 100.921Z" fill="#56065D"/>
<path opacity="0.4" d="M119.307 100.921H113.4L113.662 102.178H119.569L119.307 100.921Z" fill="#56065D"/>
<path opacity="0.4" d="M124.622 98.9251H108.279L108.541 100.175H124.884L124.622 98.9251Z" fill="#56065D"/>
<path opacity="0.4" d="M137.491 98.5891H131.638L131.376 97.3325H137.236L137.491 98.5891Z" fill="#56065D"/>
<path opacity="0.4" d="M147.235 98.5891H138.217L137.955 97.3325H146.973L147.235 98.5891Z" fill="#56065D"/>
<path opacity="0.4" d="M151.066 100.592H132.055L131.793 99.3351H150.803L151.066 100.592Z" fill="#56065D"/>
<path opacity="0.4" d="M148.539 102.588H132.471L132.209 101.331H148.277L148.539 102.588Z" fill="#56065D"/>
<path opacity="0.4" d="M155.736 90.6394H137.531L137.794 91.8893H155.998L155.736 90.6394Z" fill="#56065D"/>
<path opacity="0.4" d="M152.201 88.6368H137.115L137.377 89.8935H152.457L152.201 88.6368Z" fill="#56065D"/>
<path d="M149.473 86.641H132.861L133.123 87.8909H149.735L149.473 86.641Z" fill="#56065D"/>
<path opacity="0.4" d="M156.556 110.584H134.138L134.4 111.841H156.818L156.556 110.584Z" fill="#56065D"/>
<path opacity="0.4" d="M143.008 108.588H133.721L133.983 109.838H143.27L143.008 108.588Z" fill="#56065D"/>
<path opacity="0.4" d="M153.088 108.588H143.801L144.063 109.838H153.35L153.088 108.588Z" fill="#56065D"/>
<path opacity="0.4" d="M153.76 106.586H133.305L133.567 107.843H154.022L153.76 106.586Z" fill="#56065D"/>
<path opacity="0.4" d="M153.196 116.579H135.388L135.65 117.835H153.458L153.196 116.579Z" fill="#56065D"/>
<path opacity="0.4" d="M140.152 114.583H134.971L135.233 115.839H140.414L140.152 114.583Z" fill="#56065D"/>
<path opacity="0.4" d="M148.257 114.583H140.865L141.127 115.839H148.519L148.257 114.583Z" fill="#56065D"/>
<path opacity="0.4" d="M155.017 112.58H134.554L134.817 113.837H155.272L155.017 112.58Z" fill="#56065D"/>
<path opacity="0.4" d="M100.531 118.131H86.5939L86.856 119.388H100.793L100.531 118.131Z" fill="#56065D"/>
<path opacity="0.4" d="M96.4118 116.135H86.1772L86.4393 117.385H96.6672L96.4118 116.135Z" fill="#56065D"/>
<path opacity="0.4" d="M107.359 116.135H97.1309L97.3929 117.385H107.628L107.359 116.135Z" fill="#56065D"/>
<path opacity="0.4" d="M106.223 114.132H85.7606L86.0227 115.389H106.478L106.223 114.132Z" fill="#56065D"/>
<path d="M262.718 155.676H254.09L255.098 168.732H261.71L262.718 155.676Z" fill="#56065D"/>
<path opacity="0.4" d="M262.718 155.676H254.09L255.098 168.732H261.71L262.718 155.676Z" fill="white"/>
<path d="M74.6793 146.61H87.0844L82.8508 168.732H70.4457L74.6793 146.61Z" fill="#263238"/>
<path d="M90.478 140.683H72.959L77.8646 168.732H95.3836L90.478 140.683Z" fill="#56065D"/>
<path d="M71.9241 140.683H72.959L77.8646 168.732H76.8297L71.9241 140.683Z" fill="#56065D"/>
<path opacity="0.3" d="M71.9241 140.683H72.959L77.8646 168.732H76.8297L71.9241 140.683Z" fill="black"/>
<path d="M80.3846 165.729L76.5273 143.68H87.9648L91.8153 165.729H80.3846Z" fill="white"/>
<path opacity="0.6" d="M91.271 165.729L87.4204 143.68H87.9647L91.8153 165.729H91.271Z" fill="#56065D"/>
<path d="M177.253 104.832C177.502 105.37 177.421 105.941 177.065 106.102C176.709 106.263 176.225 105.961 175.977 105.43C175.728 104.899 175.815 104.321 176.165 104.16C176.514 103.999 177.005 104.268 177.253 104.832Z" fill="#263238"/>
<path d="M177.468 105.894C177.468 105.894 177.683 109.563 177.025 111.686C178.369 112.137 179.82 111.014 179.82 111.014L177.468 105.894Z" fill="#FF5652"/>
<path d="M177.321 100.39C177.263 100.437 177.193 100.465 177.119 100.471C176.682 100.482 176.253 100.597 175.869 100.806C175.485 101.016 175.155 101.313 174.908 101.674C174.886 101.715 174.856 101.751 174.819 101.781C174.783 101.81 174.741 101.832 174.696 101.845C174.651 101.858 174.604 101.862 174.557 101.856C174.511 101.85 174.466 101.835 174.425 101.812C174.385 101.788 174.349 101.757 174.321 101.719C174.293 101.682 174.272 101.639 174.261 101.594C174.25 101.548 174.247 101.501 174.255 101.455C174.262 101.408 174.279 101.364 174.303 101.324C174.608 100.862 175.019 100.48 175.502 100.21C175.985 99.9395 176.526 99.7893 177.079 99.7718C177.152 99.7678 177.225 99.787 177.287 99.8268C177.349 99.8666 177.397 99.9249 177.423 99.9934C177.45 100.062 177.455 100.137 177.436 100.208C177.418 100.28 177.377 100.343 177.321 100.39Z" fill="#263238"/>
<path d="M197.044 103.999C199.12 111.189 201.439 116.767 204.268 119.952C204.268 119.952 204.322 125.604 194.692 128.292C184.101 131.248 188.16 124.448 188.16 124.448C193.536 121.457 193.025 116.941 188.98 115.221L197.044 103.999Z" fill="#FF8B7B"/>
<path d="M206.512 118.574C206.324 115.947 206.076 112.95 204.456 112.869C202.669 112.789 192.32 117.412 190.109 120.671C187.898 123.93 192.219 127.122 192.219 127.122L206.512 118.574Z" fill="#263238"/>
<path d="M185.331 159.264L176.393 158.968L176.555 166.454C176.555 166.454 184.35 165.648 184.693 163.598L185.331 159.264Z" fill="#FF8B7B"/>
<path d="M171.669 162.644L170.728 166.475L176.555 166.461L176.393 158.975L171.669 162.644Z" fill="#FF8B7B"/>
<path d="M221.202 128.157L221.014 130.079C220.954 130.697 220.873 131.302 220.792 131.914C220.638 133.13 220.443 134.346 220.235 135.556C219.831 137.982 219.307 140.394 218.702 142.82C218.088 145.293 217.343 147.731 216.471 150.125C216.008 151.355 215.524 152.584 214.946 153.834C214.363 155.145 213.69 156.414 212.93 157.631C212.748 157.947 212.52 158.303 212.298 158.599C212.076 158.894 211.861 159.271 211.626 159.58C211.391 159.889 211.142 160.252 210.833 160.568L210.396 161.065C210.24 161.248 210.074 161.423 209.899 161.589C208.552 162.908 206.974 163.968 205.242 164.714C202.586 165.853 199.767 166.568 196.889 166.831C195.579 166.985 194.282 167.046 193.012 167.079C191.742 167.113 190.472 167.079 189.222 167.012C187.972 166.945 186.735 166.837 185.506 166.69C184.276 166.542 183.08 166.347 181.776 166.085L181.991 159.062C186.282 158.312 190.523 157.302 194.692 156.038C195.619 155.737 196.53 155.387 197.42 154.99C198.178 154.67 198.903 154.276 199.584 153.814C199.98 153.576 200.316 153.249 200.565 152.86L200.76 152.551C200.85 152.419 200.933 152.282 201.009 152.141C201.104 151.987 201.192 151.827 201.271 151.664C201.358 151.489 201.452 151.328 201.54 151.133C202.329 149.409 202.978 147.625 203.482 145.797C204.033 143.821 204.55 141.765 204.967 139.635C205.383 137.505 205.787 135.354 206.156 133.184L206.667 129.918L207.131 126.739L221.202 128.157Z" fill="#56065D"/>
<path opacity="0.2" d="M221.202 128.157L221.014 130.079C220.954 130.697 220.873 131.302 220.792 131.914C220.638 133.13 220.443 134.346 220.235 135.556C219.831 137.982 219.307 140.394 218.702 142.82C218.088 145.293 217.343 147.731 216.471 150.125C216.008 151.355 215.524 152.584 214.946 153.834C214.363 155.145 213.69 156.414 212.93 157.631C212.748 157.947 212.52 158.303 212.298 158.599C212.076 158.894 211.861 159.271 211.626 159.58C211.391 159.889 211.142 160.252 210.833 160.568L210.396 161.065C210.24 161.248 210.074 161.423 209.899 161.589C208.552 162.908 206.974 163.968 205.242 164.714C202.586 165.853 199.767 166.568 196.889 166.831C195.579 166.985 194.282 167.046 193.012 167.079C191.742 167.113 190.472 167.079 189.222 167.012C187.972 166.945 186.735 166.837 185.506 166.69C184.276 166.542 183.08 166.347 181.776 166.085L181.991 159.062C186.282 158.312 190.523 157.302 194.692 156.038C195.619 155.737 196.53 155.387 197.42 154.99C198.178 154.67 198.903 154.276 199.584 153.814C199.98 153.576 200.316 153.249 200.565 152.86L200.76 152.551C200.85 152.419 200.933 152.282 201.009 152.141C201.104 151.987 201.192 151.827 201.271 151.664C201.358 151.489 201.452 151.328 201.54 151.133C202.329 149.409 202.978 147.625 203.482 145.797C204.033 143.821 204.55 141.765 204.967 139.635C205.383 137.505 205.787 135.354 206.156 133.184L206.667 129.918L207.131 126.739L221.202 128.157Z" fill="black"/>
<path d="M181.521 137.088C184.853 151.454 186.728 166.12 187.118 180.862H226.464C226.679 176.004 225.859 148.606 221.901 128.816C221.55 127.023 220.844 125.319 219.824 123.803C218.805 122.287 217.493 120.99 215.966 119.989C214.438 118.987 212.726 118.301 210.929 117.97C209.133 117.64 207.288 117.671 205.504 118.064L205.316 118.111C200.404 119.226 193.355 121.027 189.188 122.606L189.02 122.674C186.234 123.757 183.936 125.817 182.557 128.469C181.177 131.121 180.809 134.184 181.521 137.088Z" fill="#56065D"/>
<path opacity="0.2" d="M184.081 149.654C184.39 151.543 184.706 153.545 184.995 155.642C188.214 152.282 189.235 141.987 189.235 141.987L184.081 149.654Z" fill="black"/>
<path d="M151.395 159.755L142.464 158.921L142.168 166.401C143.644 166.808 145.204 166.804 146.677 166.388C148.151 165.972 149.483 165.161 150.528 164.042L151.395 159.755Z" fill="#FF8B7B"/>
<path d="M138.217 161.125L135.354 166.266L142.195 166.401L142.491 158.921L138.217 161.125Z" fill="#FF8B7B"/>
<path d="M196.284 133.641C195.666 134.817 195.115 135.858 194.497 136.933C193.879 138.009 193.287 139.057 192.649 140.099C191.386 142.195 190.075 144.252 188.691 146.288C185.912 150.457 182.832 154.419 179.478 158.142C177.681 160.146 175.729 162.004 173.638 163.699C173.376 163.921 173.067 164.136 172.778 164.371C172.489 164.606 172.234 164.795 171.803 165.043C171.373 165.292 171.011 165.54 170.621 165.756C170.231 165.971 169.828 166.165 169.431 166.34C167.949 166.984 166.398 167.455 164.808 167.745C162.027 168.213 159.193 168.277 156.395 167.933C155.084 167.783 153.782 167.558 152.497 167.261C151.856 167.113 151.225 166.945 150.602 166.757C149.93 166.569 149.386 166.36 148.667 166.085L149.775 159.15C153.995 158.579 158.558 157.846 161.703 156.421C162.401 156.135 163.059 155.757 163.659 155.299C163.9 155.133 164.125 154.944 164.331 154.735C164.378 154.674 164.586 154.493 164.741 154.345C164.895 154.197 165.077 154.056 165.245 153.881C166.683 152.456 168.03 150.941 169.277 149.345C171.982 145.855 174.51 142.231 176.85 138.486C178.06 136.584 179.236 134.649 180.412 132.707L182.146 129.79L183.819 126.921L196.284 133.641Z" fill="#56065D"/>
<path d="M185.485 273.907H178.134L174.431 256.872H181.789L185.485 273.907Z" fill="#FF8B7B"/>
<path d="M177.724 272.335H185.989C186.133 272.34 186.271 272.391 186.384 272.48C186.496 272.57 186.577 272.693 186.614 272.832L188.066 279.377C188.1 279.536 188.099 279.701 188.06 279.859C188.022 280.017 187.948 280.165 187.845 280.29C187.741 280.416 187.611 280.516 187.463 280.584C187.315 280.651 187.153 280.685 186.991 280.681C184.108 280.634 182.703 280.466 179.068 280.466C176.83 280.466 173.961 280.694 170.876 280.694C167.792 280.694 167.382 277.644 168.645 277.368C174.317 276.125 174.693 274.418 176.528 272.785C176.857 272.491 177.283 272.331 177.724 272.335Z" fill="#263238"/>
<g opacity="0.2">
<path d="M181.796 256.879H174.431L176.487 266.314L183.705 265.662L181.796 256.879Z" fill="black"/>
</g>
<path d="M194.685 95.3568C197.373 102.157 199.241 106.008 197.467 110.947C194.779 118.373 185.243 119.125 180.607 113.252C176.44 107.964 172.798 97.729 178.06 92.1043C179.212 90.8574 180.664 89.9259 182.278 89.3986C183.892 88.8713 185.614 88.7655 187.28 89.0915C188.946 89.4175 190.501 90.1643 191.798 91.2609C193.094 92.3576 194.088 93.7676 194.685 95.3568Z" fill="#FF8B7B"/>
<path d="M181.769 105.544C180.667 107.023 179.82 108.145 179.82 108.145C179.82 108.145 177.556 102.52 178.423 99.9398C177.321 97.7558 175.096 100.975 174.256 96.721C173.416 92.4672 177.052 87.8976 178.423 86.9501C178.564 87.4458 178.628 87.9604 178.611 88.4755C182.315 85.4694 187.023 83.9825 191.782 84.3158C191.384 84.9074 191.131 85.5841 191.043 86.2915C191.043 86.2915 199.02 87.6355 200.834 92.1514C200.192 91.8451 199.515 91.6194 198.818 91.4794C200.28 93.5759 200.86 96.1633 200.431 98.6832C199.852 102.358 199.551 106.071 199.53 109.791C199.604 111.7 194.369 115.349 191.177 111.451C187.985 107.554 181.769 105.544 181.769 105.544Z" fill="#263238"/>
<path d="M185.096 104.079C185.512 105.663 185.394 107.341 184.76 108.851C183.906 110.867 182.152 110.383 181.285 108.622C180.499 107.043 179.995 104.113 181.386 102.708C182.777 101.304 184.571 102.178 185.096 104.079Z" fill="#FF8B7B"/>
<path d="M198.912 180.835C198.912 180.835 164.748 193.227 163.746 209.617C161.892 239.81 174.236 263.713 174.236 263.713L185.553 262.503C185.553 262.503 183.537 252.786 182.038 225.436C180.15 191.063 238.486 226.242 226.471 180.835H198.912Z" fill="#56065D"/>
<path opacity="0.5" d="M198.912 180.835C198.912 180.835 164.748 193.227 163.746 209.617C161.892 239.81 174.236 263.713 174.236 263.713L185.553 262.503C185.553 262.503 183.537 252.786 182.038 225.436C180.15 191.063 238.486 226.242 226.471 180.835H198.912Z" fill="white"/>
<path d="M171.105 259.547C171.051 259.547 172.906 264.573 172.906 264.573L187.018 263.189L186.312 258.619L171.105 259.547Z" fill="#56065D"/>
<path d="M153.707 274.747H146.348L144.198 257.705H151.556L153.707 274.747Z" fill="#FF8B7B"/>
<path d="M146.294 272.328H154.358C154.504 272.326 154.646 272.375 154.759 272.465C154.873 272.556 154.952 272.683 154.983 272.825L156.448 279.364C156.491 279.524 156.496 279.692 156.463 279.854C156.429 280.017 156.359 280.169 156.256 280.299C156.154 280.43 156.023 280.535 155.873 280.605C155.723 280.676 155.559 280.711 155.393 280.708C152.497 280.661 148.304 280.5 144.641 280.506C140.381 280.506 139.568 280.741 134.561 280.748C131.537 280.748 130.697 277.704 131.961 277.388C137.713 276.125 139.554 275.984 144.52 272.913C145.045 272.554 145.66 272.351 146.294 272.328Z" fill="#263238"/>
<path opacity="0.2" d="M144.204 257.712L145.374 266.992L152.672 266.495L151.563 257.712H144.204Z" fill="black"/>
<path d="M187.118 180.835C187.118 180.835 131.141 185.801 131.746 213.918C132.371 243.163 143.297 262.886 143.297 262.886H154.224C154.224 262.886 152.154 247.713 152.524 218.924C152.631 210.302 170.063 207.453 187.078 206.445C201.781 205.572 215.544 197.192 221.256 183.597L222.432 180.835H187.118Z" fill="#56065D"/>
<path opacity="0.5" d="M187.118 180.835C187.118 180.835 131.141 185.801 131.746 213.918C132.371 243.163 143.297 262.886 143.297 262.886H154.224C154.224 262.886 152.154 247.713 152.524 218.924C152.631 210.302 170.063 207.453 187.078 206.445C201.781 205.572 215.544 197.192 221.256 183.597L222.432 180.835H187.118Z" fill="white"/>
<path d="M140.737 259.95C140.69 259.95 142.612 265.003 142.612 265.003L155.81 264.056L155.037 259.486L140.737 259.95Z" fill="#56065D"/>
<path d="M201.815 149.238L194.712 176.608C192.896 183.62 191.979 190.835 191.984 198.079V210.8C191.984 214.012 194.349 216.619 197.272 216.619H233.681C236.604 216.619 238.97 214.012 238.97 210.8V198.079C238.967 190.835 239.887 183.62 241.705 176.608L247.975 152.416C248.942 148.7 246.402 145.024 242.888 145.024H206.895C205.701 145.062 204.553 145.497 203.632 146.26C202.712 147.023 202.073 148.071 201.815 149.238Z" fill="#263238"/>
<path d="M156.529 203.367L157.718 210.155C158.35 213.723 161.488 216.619 164.734 216.619H205.209C208.454 216.619 210.585 213.723 209.953 210.155L208.763 203.367C208.044 199.302 204.476 196.009 200.78 196.009H161.952C158.229 196.009 155.817 199.302 156.529 203.367Z" fill="#263238"/>
<path d="M209.106 223.433H187.905L185.835 216.619H211.176L209.106 223.433Z" fill="#56065D"/>
<path d="M202.292 223.433H194.719V274.109H202.292V223.433Z" fill="#56065D"/>
<path opacity="0.7" d="M202.292 274.109H194.719V224.65L202.292 225.422V274.109Z" fill="white"/>
<path opacity="0.7" d="M200.444 274.109H198.636V225.046L200.444 225.234V274.109Z" fill="white"/>
<path d="M215.92 281.944H181.084C180.881 281.942 180.683 281.877 180.52 281.756C180.356 281.636 180.234 281.467 180.172 281.274C180.109 281.081 180.109 280.873 180.172 280.68C180.234 280.486 180.356 280.317 180.519 280.197L186.043 276.165C188.699 274.22 191.904 273.17 195.196 273.168H201.815C205.104 273.171 208.307 274.221 210.961 276.165L216.492 280.197C216.656 280.318 216.777 280.487 216.84 280.681C216.902 280.875 216.901 281.084 216.838 281.277C216.775 281.471 216.652 281.64 216.487 281.759C216.322 281.879 216.124 281.944 215.92 281.944Z" fill="#56065D"/>
</svg>
