<svg width="360" height="360" viewBox="0 0 360 360" fill="none" xmlns="http://www.w3.org/2000/svg">
<path d="M360 275.328H0V275.508H360V275.328Z" fill="#EBEBEB"/>
<path d="M293.126 280.231H239.998V280.411H293.126V280.231Z" fill="#EBEBEB"/>
<path d="M80.8632 281.441H74.6064V281.621H80.8632V281.441Z" fill="#EBEBEB"/>
<path d="M307.663 286.913H293.846V287.093H307.663V286.913Z" fill="#EBEBEB"/>
<path d="M179.042 284.479H144V284.659H179.042V284.479Z" fill="#EBEBEB"/>
<path d="M137.592 284.479H120.039V284.659H137.592V284.479Z" fill="#EBEBEB"/>
<path d="M61.639 281.441H37.771V281.621H61.639V281.441Z" fill="#EBEBEB"/>
<path d="M170.64 243.216H31.6152C30.5261 243.214 29.4823 242.78 28.7128 242.009C27.9434 241.239 27.5112 240.194 27.5112 239.105V43.6752C27.5207 42.5923 27.957 41.5569 28.7255 40.7939C29.4939 40.0309 30.5323 39.6019 31.6152 39.6H170.64C171.73 39.6 172.776 40.0331 173.547 40.8041C174.318 41.5751 174.751 42.6208 174.751 43.7112V239.105C174.751 240.195 174.318 241.241 173.547 242.012C172.776 242.783 171.73 243.216 170.64 243.216ZM31.6152 39.744C30.5739 39.7459 29.5758 40.1609 28.8401 40.898C28.1044 41.635 27.6912 42.6338 27.6912 43.6752V239.105C27.6912 240.146 28.1044 241.145 28.8401 241.882C29.5758 242.619 30.5739 243.034 31.6152 243.036H170.64C171.682 243.034 172.681 242.619 173.418 241.882C174.155 241.146 174.569 240.147 174.571 239.105V43.6752C174.569 42.6332 174.155 41.6344 173.418 40.8975C172.681 40.1607 171.682 39.7459 170.64 39.744H31.6152Z" fill="#EBEBEB"/>
<path d="M326.383 243.216H187.351C186.262 243.214 185.217 242.78 184.446 242.01C183.676 241.239 183.242 240.195 183.24 239.105V43.6752C183.252 42.5917 183.69 41.5563 184.459 40.7935C185.229 40.0306 186.268 39.6018 187.351 39.6H326.383C327.465 39.6037 328.502 40.0336 329.269 40.7964C330.035 41.5593 330.471 42.5936 330.48 43.6752V239.105C330.48 240.193 330.049 241.236 329.281 242.007C328.513 242.777 327.471 243.212 326.383 243.216ZM187.351 39.744C186.309 39.7459 185.311 40.1607 184.574 40.8975C183.837 41.6344 183.422 42.6332 183.42 43.6752V239.105C183.422 240.147 183.837 241.146 184.574 241.882C185.311 242.619 186.309 243.034 187.351 243.036H326.383C327.425 243.034 328.424 242.619 329.161 241.882C329.898 241.146 330.313 240.147 330.315 239.105V43.6752C330.313 42.6332 329.898 41.6344 329.161 40.8975C328.424 40.1607 327.425 39.7459 326.383 39.744H187.351Z" fill="#EBEBEB"/>
<path d="M236.7 273.254H125.273V275.321H236.7V273.254Z" fill="#F0F0F0"/>
<path d="M279.41 189.54C279.41 189.54 288.634 202.5 302.155 191.434C314.712 181.174 302.371 156.348 302.371 156.348C302.371 156.348 316.966 160.934 319.32 141.689C321.674 122.443 300.96 127.332 300.96 127.332C308.34 112.658 299.88 112.212 293.566 113.508C295.481 109.908 296.086 105.487 291.528 101.765C281.095 93.2472 273.982 103.205 273.982 103.205C273.982 103.205 268.553 84.5424 255.708 95.436V199.62C272.376 213.739 279.41 189.54 279.41 189.54Z" fill="#F5F5F5"/>
<path d="M260.518 87.6384H47.7578V275.328H260.518V87.6384Z" fill="#FAFAFA"/>
<path d="M245.211 58.4784H63.065L47.7578 87.6384H260.518L245.211 58.4784Z" fill="#F0F0F0"/>
<path d="M228.564 256.061V236.786H216.065V217.519H125.064V236.786H137.563V256.061H150.07V275.328H241.063V256.061H228.564Z" fill="#F5F5F5"/>
<path d="M125.064 217.519V236.786H137.563V256.061H150.07V275.328H47.7578V217.519H125.064Z" fill="#EBEBEB"/>
<path d="M216.065 234.72H125.064V236.786H216.065V234.72Z" fill="#F0F0F0"/>
<path d="M228.564 253.987H137.563V256.054H228.564V253.987Z" fill="#F0F0F0"/>
<path d="M118.8 104.638H58.9609V217.519H118.8V104.638Z" fill="#F0F0F0"/>
<path d="M57.8377 217.519H58.9609L58.9609 104.638H57.8377L57.8377 217.519Z" fill="#E6E6E6"/>
<path d="M109.858 164.398C111.691 164.398 113.177 162.912 113.177 161.078C113.177 159.245 111.691 157.759 109.858 157.759C108.025 157.759 106.539 159.245 106.539 161.078C106.539 162.912 108.025 164.398 109.858 164.398Z" fill="#FAFAFA"/>
<path d="M226.555 104.638H139.572V191.441H226.555V104.638Z" fill="#F5F5F5"/>
<path d="M222.934 187.366V108.713H143.208V187.366H222.934Z" fill="white"/>
<path d="M143.201 108.72V187.366H145.548C145.548 187.366 156.305 161.626 159.3 108.713L143.201 108.72Z" fill="#FAFAFA"/>
<path d="M222.934 108.72V187.366H220.579C220.579 187.366 209.83 161.626 206.834 108.72H222.934Z" fill="#FAFAFA"/>
<path d="M225.057 145.303H141.077V150.775H225.057V145.303Z" fill="#F5F5F5"/>
<path d="M185.803 190.03V106.049H180.331V190.03H185.803Z" fill="#F5F5F5"/>
<path d="M180 307.843C257.1 307.843 319.601 304.194 319.601 299.693C319.601 295.191 257.1 291.542 180 291.542C102.901 291.542 40.3994 295.191 40.3994 299.693C40.3994 304.194 102.901 307.843 180 307.843Z" fill="#F5F5F5"/>
<path d="M132.905 299.693H110.218C109.362 299.693 108.542 299.353 107.937 298.748C107.332 298.143 106.992 297.323 106.992 296.467V256.932H136.13V296.474C136.128 297.329 135.788 298.147 135.183 298.751C134.578 299.354 133.759 299.693 132.905 299.693Z" fill="#56065D"/>
<path opacity="0.2" d="M136.13 256.932H106.999V274.09L136.13 267.775V256.932Z" fill="black"/>
<path d="M148.666 205.063C148.666 194.179 152.989 183.74 160.686 176.044C168.382 168.347 178.821 164.023 189.706 164.023C200.59 164.023 211.029 168.347 218.725 176.044C226.422 183.74 230.746 194.179 230.746 205.063V256.903H148.666V205.063Z" fill="#56065D"/>
<path opacity="0.3" d="M148.666 205.063C148.666 194.179 152.989 183.74 160.686 176.044C168.382 168.347 178.821 164.023 189.706 164.023C200.59 164.023 211.029 168.347 218.725 176.044C226.422 183.74 230.746 194.179 230.746 205.063V256.903H148.666V205.063Z" fill="black"/>
<path d="M52.0488 205.056V251.82C52.0488 252.492 52.1813 253.157 52.4386 253.778C52.696 254.399 53.0732 254.962 53.5486 255.437C54.0241 255.912 54.5885 256.288 55.2095 256.545C55.8306 256.801 56.4961 256.933 57.168 256.932H148.666V205.056C148.666 194.172 152.989 183.733 160.686 176.036C168.382 168.34 178.821 164.016 189.706 164.016H93.0888C82.2043 164.016 71.7657 168.34 64.0692 176.036C56.3727 183.733 52.0488 194.172 52.0488 205.056Z" fill="#56065D"/>
<path opacity="0.2" d="M52.0561 241.625H148.673V227.225H52.0561V241.625Z" fill="black"/>
<path opacity="0.2" d="M52.0561 222.754H148.673V208.354H52.0561V222.754Z" fill="black"/>
<path d="M154.721 161.496H142.963V162.216H154.721V161.496Z" fill="#56065D"/>
<path d="M136.8 161.496H130.479V162.216H136.8V161.496Z" fill="#56065D"/>
<path d="M99.3022 218.549V160.229C99.3023 159.996 99.2517 159.767 99.1539 159.556C99.0561 159.345 98.9134 159.158 98.7359 159.007C98.5583 158.857 98.3502 158.748 98.1259 158.686C97.9016 158.625 97.6667 158.613 97.4374 158.652L77.083 162V170.446H92.6422V218.419C91.071 219.141 89.7911 220.374 89.0118 221.918C88.2325 223.461 87.9998 225.224 88.3518 226.916C88.7039 228.609 89.6198 230.133 90.9499 231.237C92.2799 232.342 93.9455 232.963 95.6741 232.999C97.4028 233.034 99.0925 232.482 100.467 231.433C101.841 230.384 102.819 228.899 103.24 227.222C103.661 225.545 103.501 223.775 102.786 222.201C102.071 220.627 100.842 219.342 99.3022 218.556V218.549Z" fill="#263238"/>
<path d="M154.505 262.8H259.798C260.566 262.802 261.304 262.501 261.851 261.961C262.399 261.422 262.711 260.688 262.721 259.92C262.721 259.145 262.413 258.401 261.865 257.853C261.316 257.305 260.573 256.997 259.798 256.997H148.666C148.675 258.539 149.294 260.015 150.388 261.102C151.483 262.19 152.962 262.8 154.505 262.8Z" fill="#56065D"/>
<path opacity="0.2" d="M154.505 262.8H197.532C198.3 262.802 199.038 262.501 199.586 261.961C200.133 261.422 200.446 260.688 200.455 259.92C200.455 259.145 200.147 258.401 199.599 257.853C199.051 257.305 198.307 256.997 197.532 256.997H148.666C148.675 258.539 149.294 260.015 150.388 261.102C151.483 262.19 152.962 262.8 154.505 262.8Z" fill="black"/>
<path d="M255.226 293.314L249.134 293.364L247.471 279.259L253.57 279.209L255.226 293.314Z" fill="#FF8B7B"/>
<path opacity="0.2" d="M247.471 279.266L248.328 286.538L254.426 286.481L253.57 279.216L247.471 279.266Z" fill="black"/>
<path d="M304.733 278.359L299.491 281.47L290.959 270.115L296.201 267.005L304.733 278.359Z" fill="#FF8B7B"/>
<path opacity="0.2" d="M290.966 270.115L295.358 275.969L300.607 272.858L296.208 267.005L290.966 270.115Z" fill="black"/>
<path d="M249.12 292.658L255.78 292.601C255.903 292.602 256.022 292.642 256.121 292.716C256.219 292.79 256.292 292.893 256.327 293.011L257.94 298.418C257.981 298.544 257.992 298.677 257.971 298.808C257.95 298.938 257.899 299.062 257.82 299.168C257.742 299.274 257.64 299.361 257.521 299.419C257.403 299.478 257.273 299.508 257.141 299.506C254.736 299.506 251.258 299.376 248.234 299.405C244.706 299.405 243.137 299.657 238.997 299.693C236.491 299.693 235.613 297.187 236.642 296.95C241.329 295.87 243.756 295.726 247.687 293.148C248.107 292.85 248.605 292.68 249.12 292.658Z" fill="#263238"/>
<path d="M246.607 293.76C247.264 293.747 247.918 293.668 248.558 293.522C248.588 293.517 248.614 293.503 248.634 293.48C248.654 293.458 248.665 293.43 248.666 293.4C248.669 293.371 248.663 293.341 248.649 293.316C248.635 293.29 248.613 293.269 248.587 293.256C248.299 293.112 245.707 291.888 245.037 292.32C244.973 292.362 244.92 292.419 244.885 292.487C244.849 292.556 244.832 292.632 244.836 292.709C244.828 292.846 244.854 292.983 244.91 293.108C244.966 293.234 245.052 293.344 245.16 293.429C245.594 293.693 246.102 293.809 246.607 293.76ZM248.047 293.328C246.729 293.558 245.729 293.508 245.325 293.184C245.255 293.127 245.199 293.054 245.161 292.972C245.124 292.889 245.106 292.799 245.109 292.709C245.107 292.681 245.111 292.653 245.123 292.628C245.134 292.603 245.152 292.581 245.174 292.565C245.57 292.32 247.017 292.838 248.061 293.314L248.047 293.328Z" fill="#56065D"/>
<path d="M248.529 293.515C248.558 293.521 248.587 293.521 248.616 293.515C248.637 293.5 248.653 293.479 248.662 293.455C248.671 293.43 248.672 293.404 248.666 293.378C248.666 293.263 248.191 290.642 246.737 290.808C246.355 290.851 246.247 291.038 246.225 291.197C246.125 291.917 247.665 293.198 248.472 293.53L248.529 293.515ZM246.859 291.06C247.73 291.06 248.169 292.5 248.299 293.105C247.5 292.651 246.427 291.614 246.485 291.211C246.485 291.211 246.485 291.089 246.744 291.06H246.859Z" fill="#56065D"/>
<path d="M257.962 125.014C257.162 129.643 256.147 134.086 254.916 138.571C254.302 140.808 253.622 143.038 252.878 145.26C252.49 146.376 252.122 147.485 251.683 148.594C251.474 149.148 251.266 149.702 251.028 150.257L250.69 151.092L250.517 151.502L250.423 151.726L250.294 152.006C249.703 153.279 248.979 154.486 248.134 155.606C247.414 156.622 246.629 157.558 245.858 158.486C244.318 160.301 242.712 161.986 241.085 163.642C237.835 166.906 234.418 169.999 230.846 172.908L227.599 169.675C230.371 166.154 233.165 162.598 235.865 159.077C237.211 157.32 238.522 155.534 239.746 153.77C240.358 152.892 240.941 152.006 241.452 151.142C241.915 150.407 242.31 149.631 242.633 148.824C242.676 148.738 242.777 148.392 242.856 148.162L243.101 147.398C243.274 146.902 243.425 146.383 243.576 145.865C243.886 144.835 244.174 143.784 244.469 142.74C245.03 140.63 245.556 138.499 246.067 136.354C247.061 132.034 248.018 127.67 248.882 123.394L257.962 125.014Z" fill="#FF8B7B"/>
<path d="M260.114 125.856C259.747 132.811 256.377 142.574 256.377 142.574L246.917 138.974L243.021 137.534C243.535 132.93 244.628 128.408 246.276 124.078C249.156 116.662 255.83 114.854 259.236 120.312C260.028 121.543 260.237 123.545 260.114 125.856Z" fill="#56065D"/>
<path opacity="0.2" d="M260.114 125.856C259.747 132.811 256.377 142.574 256.377 142.574L246.917 138.974C247.48 136.521 248.216 134.11 249.12 131.76C251.481 125.582 256.521 123.3 260.114 125.856Z" fill="black"/>
<path d="M229.132 168.991L222.71 170.042L222.66 176.342C222.66 176.342 228.823 175.478 231.235 172.526L229.132 168.991Z" fill="#FF8B7B"/>
<path d="M216.763 173.693L216.9 177.833L222.66 176.342L222.703 170.042L216.763 173.693Z" fill="#FF8B7B"/>
<path d="M253.353 170.042C253.353 170.042 244.202 203.357 241.776 222.005C239.256 241.402 245.203 282.996 245.203 282.996L256.212 282.758C256.212 282.758 257.04 240.358 260.64 221.285C264.585 200.498 272.102 169.639 272.102 169.639L253.353 170.042Z" fill="#263238"/>
<path d="M257.565 283.255L244.62 283.514L243.669 279.216L257.4 279.18L257.565 283.255Z" fill="#56065D"/>
<path opacity="0.4" d="M257.565 283.255L244.62 283.514L243.669 279.216L257.4 279.18L257.565 283.255Z" fill="white"/>
<path d="M299.124 280.865L304.848 277.466C304.959 277.395 305.091 277.364 305.222 277.379C305.353 277.393 305.475 277.452 305.568 277.546L309.679 281.405C309.779 281.492 309.856 281.603 309.904 281.726C309.953 281.85 309.971 281.983 309.956 282.115C309.942 282.247 309.897 282.374 309.823 282.485C309.75 282.595 309.651 282.687 309.535 282.751C307.447 283.946 304.387 285.631 301.788 287.136C298.757 288.943 297.468 289.922 293.947 292.032C291.787 293.314 289.764 291.578 290.534 290.851C294.041 287.554 296.064 286.207 298.166 282.01C298.369 281.544 298.701 281.146 299.124 280.865Z" fill="#263238"/>
<path d="M297.497 283.068C298.056 282.724 298.581 282.329 299.066 281.887C299.088 281.866 299.102 281.839 299.108 281.81C299.115 281.78 299.113 281.75 299.102 281.722C299.091 281.693 299.071 281.669 299.045 281.654C299.019 281.638 298.989 281.632 298.958 281.635C298.634 281.635 295.805 281.88 295.423 282.614C295.382 282.68 295.361 282.756 295.361 282.834C295.361 282.912 295.382 282.988 295.423 283.054C295.486 283.17 295.576 283.271 295.685 283.347C295.793 283.423 295.918 283.473 296.05 283.493C296.566 283.513 297.074 283.364 297.497 283.068ZM298.541 281.959C297.518 282.823 296.626 283.284 296.114 283.205C296.026 283.192 295.941 283.158 295.868 283.107C295.794 283.056 295.733 282.988 295.69 282.91C295.674 282.885 295.666 282.856 295.666 282.827C295.666 282.798 295.674 282.769 295.69 282.744C295.92 282.355 297.396 282.074 298.541 281.959Z" fill="#56065D"/>
<path d="M299.045 281.902C299.07 281.883 299.089 281.858 299.103 281.83C299.117 281.808 299.124 281.783 299.124 281.758C299.124 281.732 299.117 281.707 299.103 281.686C299.031 281.599 297.31 279.526 296.143 280.433C295.834 280.663 295.834 280.886 295.891 281.03C296.151 281.671 298.167 282.024 299.009 281.923L299.045 281.902ZM296.367 280.62C297.123 280.181 298.217 281.189 298.663 281.65C297.735 281.65 296.294 281.304 296.136 280.93C296.136 280.93 296.093 280.822 296.287 280.678L296.367 280.62Z" fill="#56065D"/>
<path d="M264.737 169.798C264.737 169.798 264.737 202.529 265.594 221.314C266.472 240.854 290.88 274.478 290.88 274.478L300.276 268.718C300.276 268.718 283.788 236.722 284.04 217.318C284.314 196.157 285.955 169.322 285.955 169.322L264.737 169.798Z" fill="#263238"/>
<path d="M301.486 268.711L291.082 275.062L288.482 272.477L299.93 264.845L301.486 268.711Z" fill="#56065D"/>
<path opacity="0.4" d="M301.486 268.711L291.082 275.062L288.482 272.477L299.93 264.845L301.486 268.711Z" fill="white"/>
<path d="M252.597 117.36C252.597 117.36 245.794 135.922 253.354 170.05L285.955 169.33C286.07 164.326 282.405 139.982 286.733 116.302C283.103 115.694 279.438 115.326 275.76 115.2C271.141 115.026 266.515 115.125 261.907 115.495C258.76 115.873 255.647 116.497 252.597 117.36Z" fill="#56065D"/>
<path d="M274.082 99.5976C273.304 104.069 272.606 112.262 275.788 115.171C275.788 115.171 274.665 119.743 266.385 119.894C259.768 120.017 261.936 115.466 261.936 115.466C266.882 114.17 266.673 110.484 265.73 107.042L274.082 99.5976Z" fill="#FF8B7B"/>
<path opacity="0.2" d="M270.677 102.629L265.737 107.035C265.968 107.836 266.127 108.655 266.213 109.483C268.106 109.174 270.677 107.028 270.835 105.034C270.929 104.229 270.876 103.414 270.677 102.629Z" fill="black"/>
<path opacity="0.2" d="M279.46 128.11L284.896 132.026C284.659 136.195 284.587 140.249 284.623 144.05C281.289 140.695 279.424 134.525 279.46 128.11Z" fill="black"/>
<path d="M274.601 112.946C274.601 112.946 273.038 116.705 265.745 119.902C266.918 120.373 267.98 121.084 268.862 121.989C269.745 122.894 270.429 123.973 270.871 125.158C270.871 125.158 276.177 120.118 277.596 115.078L274.601 112.946Z" fill="white"/>
<path d="M260.294 123.797C260.294 123.797 262.526 120.557 265.745 119.902C264.614 118.519 263.448 115.452 264.528 113.998C263.579 114.248 262.66 114.598 261.785 115.042C261.785 115.042 257.407 117.67 260.294 123.797Z" fill="white"/>
<path d="M259.654 86.796C256.68 88.0704 255.204 96.0768 259.078 97.8192C262.951 99.5616 265.284 84.3912 259.654 86.796Z" fill="#263238"/>
<path d="M274.471 92.88C274.226 98.928 274.392 102.478 271.411 105.638C266.925 110.398 259.416 107.798 257.846 101.801C256.406 96.4008 257.069 87.4008 262.922 84.8952C264.211 84.3311 265.623 84.1058 267.023 84.2409C268.423 84.376 269.766 84.8669 270.923 85.667C272.08 86.4671 273.014 87.5498 273.635 88.8123C274.256 90.0747 274.544 91.475 274.471 92.88Z" fill="#FF8B7B"/>
<path d="M265.349 94.7592C265.349 95.2488 265.111 95.652 264.787 95.6592C264.463 95.6664 264.197 95.2704 264.19 94.7808C264.182 94.2912 264.427 93.888 264.751 93.8808C265.075 93.8736 265.342 94.2624 265.349 94.7592Z" fill="#263238"/>
<path d="M259.79 94.8744C259.79 95.364 259.553 95.7672 259.229 95.7744C258.905 95.7816 258.638 95.3928 258.631 94.896C258.624 94.3992 258.869 94.0032 259.193 93.996C259.517 93.9888 259.783 94.3848 259.79 94.8744Z" fill="#263238"/>
<path d="M261.569 95.0832C261.013 96.5983 260.253 98.0301 259.308 99.3384C259.649 99.5708 260.036 99.726 260.442 99.7931C260.849 99.8603 261.265 99.8378 261.663 99.7272L261.569 95.0832Z" fill="#FF5652"/>
<path d="M263.124 101.052C263.785 101.057 264.438 100.903 265.027 100.602C265.616 100.302 266.124 99.863 266.508 99.324C266.518 99.3081 266.525 99.2903 266.528 99.2717C266.531 99.2531 266.53 99.234 266.525 99.2158C266.52 99.1975 266.512 99.1805 266.5 99.1656C266.488 99.1508 266.474 99.1385 266.457 99.1296C266.426 99.1104 266.388 99.1041 266.351 99.1122C266.315 99.1202 266.283 99.1419 266.263 99.1728C265.9 99.6664 265.426 100.068 264.88 100.344C264.333 100.62 263.729 100.764 263.116 100.764C263.098 100.765 263.079 100.77 263.062 100.778C263.045 100.786 263.029 100.797 263.017 100.811C263.004 100.825 262.994 100.842 262.988 100.86C262.981 100.877 262.979 100.896 262.98 100.915C262.982 100.952 262.998 100.987 263.024 101.012C263.051 101.038 263.087 101.052 263.124 101.052Z" fill="#263238"/>
<path d="M266.983 92.9304C267.048 92.9283 267.111 92.9057 267.163 92.8656C267.222 92.8177 267.26 92.7484 267.268 92.6729C267.276 92.5974 267.254 92.5217 267.206 92.4624C266.93 92.0961 266.57 91.8012 266.157 91.602C265.744 91.4029 265.289 91.3054 264.83 91.3176C264.754 91.3243 264.683 91.361 264.634 91.4198C264.585 91.4785 264.561 91.5544 264.568 91.6308C264.574 91.7072 264.611 91.7778 264.67 91.8271C264.728 91.8763 264.804 91.9003 264.881 91.8936C265.243 91.8902 265.601 91.9718 265.926 92.1319C266.251 92.2919 266.534 92.526 266.753 92.8152C266.779 92.8514 266.814 92.8807 266.854 92.9008C266.894 92.9208 266.938 92.931 266.983 92.9304Z" fill="#263238"/>
<path d="M257.313 93.0168C257.369 93.0162 257.423 93.0004 257.47 92.9712C257.517 92.942 257.555 92.9005 257.58 92.8512C257.722 92.5138 257.943 92.2158 258.225 91.9826C258.507 91.7494 258.842 91.5879 259.2 91.512C259.276 91.4996 259.344 91.458 259.39 91.3961C259.435 91.3343 259.455 91.257 259.445 91.1808C259.431 91.1057 259.389 91.0387 259.327 90.9933C259.266 90.9479 259.189 90.9274 259.113 90.936C258.665 91.0322 258.247 91.234 257.892 91.5245C257.538 91.8151 257.258 92.1859 257.076 92.6064C257.059 92.6403 257.049 92.6773 257.047 92.7151C257.045 92.7529 257.05 92.7907 257.063 92.8264C257.076 92.862 257.095 92.8947 257.121 92.9225C257.147 92.9503 257.178 92.9725 257.213 92.988C257.244 93.004 257.278 93.0138 257.313 93.0168Z" fill="#263238"/>
<path d="M287.777 120.6C289.137 122.558 290.333 124.474 291.564 126.446C292.795 128.419 293.933 130.406 295.063 132.422C297.355 136.505 299.394 140.725 301.169 145.058C301.399 145.598 301.601 146.174 301.809 146.736L302.126 147.586L302.285 148.018L302.472 148.608C302.931 150.16 303.097 151.783 302.961 153.396C302.677 156.214 301.737 158.926 300.218 161.316C298.896 163.45 297.322 165.418 295.531 167.177C294.674 168.041 293.767 168.84 292.845 169.61C291.912 170.381 290.939 171.102 289.929 171.77L286.999 168.257C287.64 167.537 288.367 166.644 289.015 165.816C289.663 164.988 290.297 164.102 290.894 163.238C292.059 161.578 293.06 159.808 293.882 157.954C294.599 156.41 294.974 154.73 294.984 153.029C294.958 152.379 294.822 151.739 294.581 151.135L294.005 149.854C293.781 149.378 293.58 148.896 293.335 148.414C291.477 144.562 289.332 140.731 287.078 136.944C284.825 133.157 282.463 129.355 280.123 125.719L287.777 120.6Z" fill="#FF8B7B"/>
<path d="M286.733 116.316C292.428 117.547 300.622 135.115 300.622 135.115L285.365 142.56C282.651 138.41 280.397 133.978 278.64 129.341C275.983 121.918 280.635 114.991 286.733 116.316Z" fill="#56065D"/>
<path d="M281.311 161.496L296.64 206.777C297.235 208.554 297.104 210.494 296.274 212.175C295.445 213.856 293.985 215.14 292.212 215.748L189.173 250.682C187.394 251.279 185.451 251.147 183.769 250.314C182.088 249.482 180.805 248.017 180.201 246.24L164.88 200.974C164.584 200.116 164.462 199.208 164.52 198.302C164.602 196.896 165.102 195.545 165.955 194.423C166.807 193.302 167.974 192.459 169.308 192.002L272.369 157.068C273.703 156.619 275.141 156.578 276.499 156.95C277.857 157.322 279.074 158.09 279.993 159.156C280.583 159.841 281.03 160.637 281.311 161.496Z" fill="#56065D"/>
<path opacity="0.8" d="M281.311 161.496L296.64 206.777C297.235 208.554 297.104 210.494 296.274 212.175C295.445 213.856 293.985 215.14 292.212 215.748L189.173 250.682C187.394 251.279 185.451 251.147 183.769 250.314C182.088 249.482 180.805 248.017 180.201 246.24L164.88 200.974C164.584 200.116 164.462 199.208 164.52 198.302C164.602 196.896 165.102 195.545 165.955 194.423C166.807 193.302 167.974 192.459 169.308 192.002L272.369 157.068C273.703 156.619 275.141 156.578 276.499 156.95C277.857 157.322 279.074 158.09 279.993 159.156C280.583 159.841 281.03 160.637 281.311 161.496Z" fill="white"/>
<path opacity="0.6" d="M279.965 159.156L237.333 197.28C235.19 199.195 232.683 200.656 229.961 201.578C227.239 202.5 224.359 202.862 221.493 202.644L164.484 198.324C164.567 196.917 165.066 195.567 165.919 194.445C166.771 193.323 167.939 192.48 169.272 192.024L272.333 157.09C273.666 156.636 275.104 156.591 276.464 156.959C277.823 157.327 279.042 158.092 279.965 159.156Z" fill="#56065D"/>
<path d="M288.54 167.414L281.988 167.458L286.027 174.074C286.027 174.074 290.693 172.944 291.125 170.597L288.54 167.414Z" fill="#FF8B7B"/>
<path d="M277.891 171.338L281.484 176.659L286.027 174.074L281.988 167.458L277.891 171.338Z" fill="#FF8B7B"/>
<path d="M278.597 88.0344C280.037 91.98 275.681 101.117 273.146 100.944C270.612 100.771 269.921 91.2744 271.361 88.9128C269.993 89.5464 256.961 89.568 257.026 88.1928C257.357 83.196 266.22 81.3816 275.94 83.8728C278.467 83.7504 279.41 84.4416 278.597 88.0344Z" fill="#263238"/>
<path d="M277.337 99.468C276.951 100.116 276.441 100.68 275.835 101.129C275.229 101.578 274.541 101.901 273.809 102.082C271.85 102.557 270.929 100.793 271.548 98.9784C272.088 97.344 273.758 95.1336 275.702 95.4648C277.646 95.796 278.287 97.8624 277.337 99.468Z" fill="#FF8B7B"/>
<path d="M249.257 85.68L279.166 89.136C279.316 89.1522 279.467 89.1084 279.586 89.0141C279.705 88.9197 279.781 88.7825 279.799 88.632C279.816 88.4824 279.773 88.3324 279.68 88.214C279.587 88.0956 279.452 88.0182 279.302 87.9984L249.386 84.5496C249.237 84.5332 249.087 84.5761 248.968 84.6689C248.85 84.7618 248.773 84.8972 248.753 85.0464C248.737 85.1971 248.78 85.3481 248.875 85.4667C248.969 85.5853 249.106 85.6619 249.257 85.68Z" fill="#56065D"/>
<path d="M279.799 88.6032L280.318 84.1392C280.312 83.6511 280.124 83.1827 279.791 82.8257C279.458 82.4688 279.004 82.2491 278.518 82.2096L260.15 78.7392C258.79 78.48 257.537 79.2432 257.544 80.3232V86.04L279.799 88.6032Z" fill="#56065D"/>
<path d="M259.257 84.7224L267.033 85.6224L267.3 83.3544L259.265 82.4328L259.257 84.7224Z" fill="white"/>
</svg>
