<svg width="48" height="48" viewBox="0 0 48 48" fill="none" xmlns="http://www.w3.org/2000/svg">
<path d="M16 48C20.416 48 24 44.416 24 40V32H16C11.584 32 8 35.584 8 40C8 44.416 11.584 48 16 48Z" fill="#0ACF83"/>
<path d="M8 24C8 19.584 11.584 16 16 16H24V32H16C11.584 32 8 28.416 8 24Z" fill="#A259FF"/>
<path d="M8 8C8 3.584 11.584 0 16 0H24V16H16C11.584 16 8 12.416 8 8Z" fill="#F24E1E"/>
<path d="M24 0H32C36.416 0 40 3.584 40 8C40 12.416 36.416 16 32 16H24V0Z" fill="#FF7262"/>
<path d="M40 24C40 28.416 36.416 32 32 32C27.584 32 24 28.416 24 24C24 19.584 27.584 16 32 16C36.416 16 40 19.584 40 24Z" fill="#1ABCFE"/>
</svg>
