<svg width="48" height="48" viewBox="0 0 48 48" fill="none" xmlns="http://www.w3.org/2000/svg">
<path d="M6.69001 43.202L2.83801 0H45.162L41.306 43.196L23.974 48L6.69001 43.202Z" fill="#E44D26"/>
<path d="M24 44.328L38.004 40.444L41.3 3.532H24V44.328Z" fill="#F16529"/>
<path d="M24 19.556H16.99L16.504 14.13H24V8.83H10.714L10.84 10.252L12.142 24.852H24V19.556ZM24 33.316L23.976 33.322L18.076 31.728L17.698 27.502H12.38L13.122 35.822L23.976 38.836L24 38.828V33.316Z" fill="#EBEBEB"/>
<path d="M23.9821 19.556V24.854H30.5081L29.8921 31.726L23.9821 33.32V38.832L34.8441 35.822L34.9241 34.926L36.1701 20.978L36.2981 19.554H34.8701L23.9821 19.556ZM23.9821 8.83V14.13H36.7801L36.8861 12.938L37.1281 10.252L37.2541 8.83H23.9821Z" fill="white"/>
<path d="M24 47.992L23.974 48H24V47.992Z" fill="#DEDEDE"/>
<path d="M24 14.13H16.504L16.988 19.556H23.98H24V14.13ZM24 0H2.83801L6.69001 43.202L23.974 48L24 47.992V38.828L23.976 38.836L13.122 35.822L12.38 27.502H17.698L18.076 31.728L23.976 33.322L23.982 33.32L24 33.316V24.854H12.142L10.84 10.254L10.714 8.83H23.982H24V0Z" fill="#C64321"/>
<path d="M17.698 27.502H12.38L13.122 35.822L23.976 38.836L24 38.828L23.982 38.832V33.32L23.976 33.322L18.076 31.728L17.698 27.502ZM23.982 8.83H10.714L10.84 10.252L12.142 24.852H24H23.982V19.556H16.99L16.504 14.13H24H23.982V8.83Z" fill="#CDCDCD"/>
<path d="M24.0001 33.316L23.9821 33.32V38.832L24.0001 38.828V33.316ZM24.0001 19.556H23.9821V24.854H24.0001V19.556ZM24.0001 8.83H23.9821V14.13H24.0001V8.83Z" fill="#DEDEDE"/>
</svg>
