<svg width="40" height="41" viewBox="0 0 40 41" fill="none" xmlns="http://www.w3.org/2000/svg">
<path fill-rule="evenodd" clip-rule="evenodd" d="M25.5557 12.1853C23.9112 11.0865 21.9778 10.5 20 10.5V0.5C23.9556 0.5 27.8224 1.67298 31.1114 3.87061C34.4004 6.06823 36.9638 9.19181 38.4776 12.8463C39.9913 16.5008 40.3874 20.5222 39.6157 24.4018C38.844 28.2814 36.9392 31.8451 34.1421 34.6421C31.3451 37.4392 27.7814 39.344 23.9018 40.1157C20.0222 40.8874 16.0008 40.4913 12.3463 38.9776C8.6918 37.4638 5.56823 34.9004 3.37061 31.6114C1.17298 28.3224 0 24.4556 0 20.5H10C10 22.4778 10.5865 24.4112 11.6853 26.0557C12.7841 27.7002 14.3459 28.9819 16.1732 29.7388C18.0004 30.4957 20.0111 30.6937 21.9509 30.3078C23.8907 29.922 25.6725 28.9696 27.0711 27.5711C28.4696 26.1725 29.422 24.3907 29.8078 22.4509C30.1937 20.5111 29.9957 18.5004 29.2388 16.6732C28.4819 14.8459 27.2002 13.2841 25.5557 12.1853Z" fill="#FBF7F4"/>
<path fill-rule="evenodd" clip-rule="evenodd" d="M9.99999 0.500005C9.99999 1.81322 9.74134 3.11358 9.23879 4.32684C8.73624 5.54009 7.99965 6.64248 7.07106 7.57107C6.14248 8.49966 5.04009 9.23625 3.82683 9.7388C2.61357 10.2413 1.31321 10.5 4.3711e-07 10.5L0 20.5C2.62643 20.5 5.22715 19.9827 7.65367 18.9776C10.0802 17.9725 12.285 16.4993 14.1421 14.6421C15.9993 12.785 17.4725 10.5802 18.4776 8.15367C19.4827 5.72715 20 3.12643 20 0.5L9.99999 0.500005Z" fill="#FBF7F4"/>
</svg>
